<svg width="176" height="177" viewBox="0 0 176 177" fill="none" xmlns="http://www.w3.org/2000/svg">
<path d="M7.27734 73.2892C7.28456 62.4881 15.241 38.3417 30.8025 28.2672C28.8235 29.8831 5.24663 48.253 8.22474 93.2853C18.9985 70.1852 60.9385 46.0629 39.8284 0C19.7754 9.95027 -15.2119 26.5118 7.27734 73.2892Z" fill="white"/>
<path d="M8.92777 90.1048C8.27417 107.769 13.288 125.18 23.2363 139.791C33.1846 154.402 47.5458 165.448 64.2206 171.315C80.8954 177.181 99.0094 177.56 115.915 172.395C132.82 167.231 147.631 156.795 158.181 142.612C168.731 128.429 174.468 111.244 174.554 93.5675C174.639 75.8911 169.068 58.6509 158.655 44.367C148.242 30.0831 133.533 19.5045 116.678 14.1774C99.8232 8.85043 81.7064 9.05436 64.9758 14.7594" stroke="white" stroke-width="1.65683" stroke-linecap="round" stroke-linejoin="round"/>
<mask id="path-3-outside-1_1176_750" maskUnits="userSpaceOnUse" x="64.2705" y="46.7598" width="54" height="96" fill="black">
<rect fill="white" x="64.2705" y="46.7598" width="54" height="96"/>
</mask>
<path d="M118.254 54.7174C118.254 50.5924 114.86 47.2077 110.729 47.2077V48.312C114.252 48.312 117.15 51.2047 117.15 54.7174H118.254ZM110.729 47.2077H101.973V48.312H110.729V47.2077ZM101.973 47.2077H80.9999V48.312H101.973V47.2077ZM80.9999 47.2077H72.2439V48.312H80.9999V47.2077ZM72.2439 47.2077C68.1126 47.2077 64.7184 50.5924 64.7184 54.7174H65.8227C65.8227 51.2047 68.7202 48.312 72.2439 48.312V47.2077ZM64.7184 54.7174V84.3784H65.8227V54.7174H64.7184ZM118.254 84.3784V54.7174H117.15V84.3784H118.254ZM64.7184 84.378V135.173H65.8227V84.378H64.7184ZM64.7184 135.173C64.7184 139.311 68.1105 142.711 72.2439 142.711V141.607C68.7223 141.607 65.8227 138.703 65.8227 135.173H64.7184ZM72.2439 142.711H110.676V141.607H72.2439V142.711ZM110.676 142.711C114.859 142.711 118.254 139.314 118.254 135.173H117.15C117.15 138.701 114.253 141.607 110.676 141.607V142.711ZM118.254 135.173V84.378H117.15V135.173H118.254Z" fill="white" mask="url(#path-3-outside-1_1176_750)"/>
<path d="M84.9688 46.2938C84.9688 45.5685 85.5567 44.9806 86.282 44.9806H96.7877C97.513 44.9806 98.1009 45.5685 98.1009 46.2938H84.9688Z" fill="white"/>
<path d="M64.9395 84.1829V135.149C64.9395 138.996 68.1265 142.158 72.004 142.158H110.938C114.869 142.158 118.056 138.996 118.056 135.149V84.1829H91.4978H64.9395Z" fill="white"/>
</svg>
