<svg width="450" height="450" viewBox="0 0 450 450" fill="none" xmlns="http://www.w3.org/2000/svg">
<g clip-path="url(#clip0_1640_154)">
<path d="M129.883 114.354C122.119 112.601 104.387 109.446 93.4175 109.158C116.627 89.278 128.503 78.0785 149.025 67.8107C165.443 59.5964 180.048 52.2264 187.534 50.529C180.567 51.0775 177.268 51.5041 159.523 58.2076C141.414 65.049 136.367 68.4877 128.414 72.3909C122.053 75.5134 106.49 86.4572 96.872 92.5208C96.7347 85.9448 98.4575 77.8168 99.3361 74.5748C104.413 58.9969 116.697 46.1456 130.733 37.0699C141.963 29.8093 160.209 24.9698 167.928 23.4576C173.367 22.4851 188.347 21.3964 204.755 24.821C221.164 28.2456 234.463 37.6377 239.061 41.9057C226.949 60.6584 212.476 79.2579 192.229 97.4223C171.981 115.587 139.588 116.545 129.883 114.354Z" fill="#E3ECF7" stroke="#E3ECF7" stroke-width="1.20275"/>
<path fill-rule="evenodd" clip-rule="evenodd" d="M190.714 135.484C176.101 135.484 164.254 147.331 164.254 161.945V329.248C164.254 343.862 176.101 355.708 190.714 355.708H262.551C277.165 355.708 289.011 343.862 289.011 329.248V161.945C289.011 147.331 277.165 135.484 262.551 135.484H190.714ZM190.84 238.924C180.876 238.924 172.799 247.001 172.799 256.965V327.785C172.799 337.749 180.876 345.826 190.84 345.826H263.318C273.282 345.826 281.359 337.749 281.359 327.785V256.965C281.359 247.001 273.281 238.924 263.318 238.924H190.84Z" fill="#E3ECF7"/>
<path d="M211.979 129.565C211.979 126.244 214.671 123.551 217.992 123.551H235.256C238.577 123.551 241.269 126.244 241.269 129.565V129.942C241.269 130.607 240.731 131.145 240.067 131.145H213.181C212.517 131.145 211.979 130.607 211.979 129.942V129.565Z" fill="#E3ECF7"/>
<path d="M246.052 59.5466C289.948 63.9296 382.6 100.601 402.045 212.222C409.3 252.765 400.304 346.708 306.273 398.135C269.753 419.807 176.182 442.842 94.0497 361.61C62.2465 328.25 14.0943 237.059 75.911 139.172C87.157 120.665 121.838 79.9276 170.595 65.0254" stroke="#E3ECF7" stroke-width="12.0275" stroke-linecap="round"/>
</g>
<defs>
<clipPath id="clip0_1640_154">
<rect width="450" height="450" fill="white"/>
</clipPath>
</defs>
</svg>
