<svg width="270" height="393" viewBox="0 0 270 393" fill="none" xmlns="http://www.w3.org/2000/svg">
<mask id="path-1-outside-1_1207_515" maskUnits="userSpaceOnUse" x="44.5137" y="40.3755" width="181" height="323" fill="black">
<rect fill="white" x="44.5137" y="40.3755" width="181" height="323"/>
</mask>
<path d="M225.346 65.8589C225.346 51.9362 213.89 40.5119 199.946 40.5119V44.2391C211.839 44.2391 221.619 54.0027 221.619 65.8589H225.346ZM199.946 40.5119H170.392V44.2391H199.946V40.5119ZM170.392 40.5119H99.6044V44.2391H170.392V40.5119ZM99.6044 40.5119H70.0506V44.2391H99.6044V40.5119ZM70.0506 40.5119C56.1066 40.5119 44.65 51.9362 44.65 65.8589H48.3773C48.3773 54.0027 58.1571 44.2391 70.0506 44.2391V40.5119ZM44.65 65.8589V165.972H48.3773V65.8589H44.65ZM225.346 165.972V65.8589H221.619V165.972H225.346ZM44.65 165.974V337.42H48.3773V165.974H44.65ZM44.65 337.42C44.65 351.388 56.0993 362.864 70.0506 362.864V359.136C58.1643 359.136 48.3773 349.336 48.3773 337.42H44.65ZM70.0506 362.864H199.769V359.136H70.0506V362.864ZM199.769 362.864C213.888 362.864 225.346 351.397 225.346 337.42H221.619C221.619 349.327 211.841 359.136 199.769 359.136V362.864ZM225.346 337.42V165.974H221.619V337.42H225.346Z" fill="white" mask="url(#path-1-outside-1_1207_515)"/>
<path d="M113 37.4324C113 34.9845 114.984 33 117.432 33H152.892C155.34 33 157.324 34.9845 157.324 37.4324V37.4324H113V37.4324Z" fill="white"/>
<path d="M46.2559 134.905V333.483C46.2559 348.474 56.9359 360.795 69.9299 360.795H200.404C213.576 360.795 224.256 348.474 224.256 333.483V134.905H135.256H46.2559Z" fill="white"/>
<path d="M46.2559 268.89V70.312C46.2559 55.3211 56.9359 42.9998 69.9299 42.9998H200.404C213.576 42.9998 224.256 55.3211 224.256 70.312V268.89H135.256H46.2559Z" fill="white"/>
<path d="M167.921 303.98C169.69 300.917 170.157 297.362 169.239 293.937C168.316 290.521 166.139 287.666 163.076 285.898C160.013 284.129 156.452 283.672 153.032 284.58C149.617 285.503 146.762 287.68 144.994 290.743C143.225 293.806 142.768 297.367 143.675 300.786C144.599 304.202 146.776 307.057 149.839 308.825C152.902 310.594 156.462 311.051 159.882 310.144C161.564 309.7 163.14 308.927 164.52 307.869C165.9 306.81 167.056 305.489 167.921 303.98ZM119.409 332.289L129.004 328.896C130.767 330.337 132.66 331.648 134.637 332.79C136.614 333.932 138.706 334.921 140.826 335.721L142.684 345.728C142.825 346.484 143.193 347.179 143.739 347.721C144.285 348.264 144.983 348.627 145.74 348.762L146.06 348.824C152.281 349.957 158.655 349.954 164.875 348.814L165.197 348.754C165.952 348.615 166.648 348.251 167.192 347.71C167.736 347.168 168.104 346.474 168.246 345.72L170.088 335.692C174.383 334.073 178.345 331.799 181.87 328.889L191.496 332.302C192.221 332.559 193.007 332.589 193.75 332.389C194.493 332.188 195.157 331.766 195.655 331.179L195.866 330.932C199.904 326.161 203.146 320.547 205.258 314.664L205.367 314.358C205.626 313.633 205.66 312.847 205.462 312.104C205.264 311.36 204.845 310.694 204.26 310.194L196.456 303.531C197.183 299.052 197.176 294.486 196.435 290.009L204.255 283.351C204.839 282.851 205.257 282.186 205.454 281.444C205.651 280.701 205.617 279.916 205.357 279.193L205.249 278.884C203.118 272.932 199.934 267.411 195.85 262.585L195.637 262.339C194.623 261.139 192.97 260.69 191.481 261.21L181.777 264.65C180.034 263.22 178.156 261.931 176.21 260.807C174.243 259.672 172.187 258.69 170.098 257.907L168.214 247.804C168.073 247.048 167.705 246.352 167.159 245.81C166.613 245.268 165.915 244.905 165.158 244.769L164.838 244.708C158.615 243.587 152.272 243.572 146.023 244.718L145.702 244.778C144.946 244.916 144.251 245.28 143.706 245.822C143.162 246.363 142.795 247.057 142.652 247.812L140.795 257.913C136.523 259.517 132.572 261.771 129.075 264.656L119.402 261.229C118.677 260.972 117.891 260.942 117.148 261.143C116.405 261.343 115.741 261.765 115.243 262.352L115.033 262.599C110.958 267.42 107.778 272.929 105.64 278.868L105.532 279.174C105.272 279.898 105.239 280.684 105.436 281.428C105.634 282.172 106.053 282.837 106.638 283.337L114.407 289.967C113.66 294.48 113.661 299.043 114.407 303.572L106.644 310.181C106.06 310.68 105.641 311.345 105.444 312.088C105.247 312.831 105.281 313.616 105.541 314.339L105.649 314.647C107.802 320.643 110.966 326.117 115.048 330.946L115.261 331.192C116.277 332.366 117.92 332.81 119.409 332.289ZM138.447 286.963C144.191 277.016 156.908 273.608 166.855 279.352C176.803 285.095 180.211 297.812 174.467 307.76C168.724 317.707 156.007 321.115 146.059 315.372C136.112 309.628 132.704 296.911 138.447 286.963Z" fill="#07407B"/>
<path d="M73.1131 256.692C76.1763 254.923 78.3586 252.079 79.2766 248.653C80.1843 245.233 79.7268 241.672 77.9583 238.609C76.1898 235.546 73.335 233.37 69.9195 232.446C66.4996 231.538 62.9391 231.996 59.876 233.764C56.8129 235.533 54.6364 238.387 53.7126 241.803C52.8049 245.223 53.2624 248.783 55.0309 251.846C56.7994 254.91 59.6541 257.086 63.0696 258.01C64.7476 258.466 66.4995 258.585 68.2237 258.359C69.9478 258.132 71.6098 257.566 73.1131 256.692ZM16.9455 256.952L26.9518 258.81C27.758 260.94 28.7416 263.022 29.8831 265C31.0247 266.977 32.3419 268.88 33.7774 270.633L30.3838 280.228C30.1278 280.953 30.0987 281.739 30.3004 282.482C30.5022 283.224 30.9251 283.888 31.513 284.384L31.759 284.597C36.5798 288.689 42.1021 291.873 48.0582 293.996L48.3669 294.104C49.0902 294.362 49.8746 294.395 50.6168 294.198C51.359 294.001 52.0242 293.584 52.5246 293.001L59.1339 285.238C63.6623 285.984 68.2314 285.996 72.7384 285.238L79.3684 293.007C79.8681 293.592 80.5339 294.011 81.2775 294.209C82.0212 294.406 82.8073 294.373 83.5316 294.113L83.8378 294.005C89.721 291.892 95.335 288.651 100.106 284.612L100.353 284.402C100.94 283.904 101.362 283.24 101.563 282.497C101.763 281.754 101.733 280.968 101.476 280.243L98.0496 270.57C100.918 267.055 103.196 263.096 104.792 258.85L114.894 256.993C115.649 256.852 116.344 256.485 116.886 255.941C117.428 255.396 117.791 254.699 117.928 253.943L117.988 253.622C119.119 247.401 119.122 241.028 117.998 234.807L117.936 234.487C117.658 232.941 116.451 231.725 114.902 231.431L104.778 229.559C103.984 227.449 103.002 225.394 101.878 223.447C100.742 221.48 99.4528 219.602 98.0351 217.88L101.455 208.188C101.711 207.462 101.74 206.676 101.538 205.934C101.336 205.191 100.913 204.528 100.325 204.032L100.08 203.819C95.2501 199.736 89.7645 196.552 83.7803 194.42L83.4716 194.311C82.7483 194.053 81.9639 194.021 81.2217 194.218C80.4795 194.414 79.8143 194.832 79.3139 195.414L72.655 203.233C68.153 202.486 63.6043 202.462 59.134 203.213L52.4701 195.409C51.9704 194.824 51.3046 194.404 50.561 194.207C49.8173 194.009 49.0312 194.042 48.3069 194.302L48.0007 194.41C42.0621 196.548 36.5529 199.729 31.7323 203.803L31.4853 204.014C30.8982 204.511 30.4763 205.176 30.2757 205.918C30.0751 206.661 30.1053 207.448 30.3622 208.173L33.7754 217.799C30.8713 221.333 28.5912 225.286 26.9728 229.581L16.9448 231.423C16.1894 231.563 15.4946 231.93 14.9527 232.475C14.4107 233.019 14.0474 233.716 13.9109 234.472L13.8507 234.794C12.7165 241.063 12.7197 247.385 13.8406 253.609L13.9021 253.928C14.1951 255.453 15.3963 256.658 16.9455 256.952ZM56.0965 227.218C66.044 221.475 78.7614 224.882 84.5045 234.83C90.2477 244.777 86.8401 257.495 76.8926 263.238C66.9451 268.981 54.2278 265.573 48.4846 255.626C42.7414 245.678 46.149 232.961 56.0965 227.218Z" fill="#07407B"/>
<path d="M140.438 191.649C138.071 191.649 135.855 192.545 134.177 194.182C132.507 195.819 131.581 197.981 131.581 200.29C131.581 202.598 132.507 204.76 134.177 206.397C135.855 208.027 138.071 208.93 140.438 208.93C142.804 208.93 145.02 208.027 146.698 206.397C148.368 204.76 149.294 202.598 149.294 200.29C149.294 197.981 148.368 195.819 146.698 194.182C145.879 193.376 144.903 192.737 143.828 192.303C142.754 191.868 141.601 191.646 140.438 191.649ZM173.07 209.834L167.894 205.517C168.139 204.05 168.266 202.552 168.266 201.062C168.266 199.572 168.139 198.066 167.894 196.606L173.07 192.29C173.461 191.963 173.741 191.528 173.872 191.043C174.004 190.557 173.981 190.044 173.806 189.572L173.735 189.371C172.31 185.485 170.176 181.882 167.435 178.738L167.292 178.576C166.959 178.195 166.516 177.92 166.02 177.789C165.524 177.658 164.999 177.677 164.514 177.843L158.087 180.074C155.713 178.175 153.07 176.677 150.204 175.634L148.962 169.079C148.868 168.585 148.622 168.13 148.258 167.776C147.893 167.422 147.426 167.184 146.92 167.094L146.706 167.056C142.59 166.33 138.253 166.33 134.138 167.056L133.924 167.094C133.417 167.184 132.951 167.422 132.586 167.776C132.221 168.13 131.976 168.585 131.882 169.079L130.631 175.665C127.793 176.716 125.15 178.21 122.804 180.09L116.329 177.843C115.845 177.676 115.319 177.656 114.823 177.787C114.327 177.918 113.883 178.193 113.551 178.576L113.409 178.738C110.673 181.886 108.539 185.487 107.109 189.371L107.038 189.572C106.681 190.537 106.974 191.618 107.774 192.29L113.013 196.653C112.768 198.104 112.649 199.587 112.649 201.054C112.649 202.537 112.768 204.019 113.013 205.455L107.79 209.818C107.399 210.145 107.119 210.58 106.987 211.065C106.856 211.551 106.879 212.064 107.053 212.536L107.125 212.737C108.557 216.621 110.67 220.212 113.425 223.37L113.567 223.532C113.9 223.914 114.344 224.188 114.84 224.319C115.336 224.45 115.861 224.431 116.345 224.265L122.82 222.018C125.178 223.91 127.806 225.408 130.647 226.443L131.898 233.029C131.991 233.523 132.237 233.978 132.602 234.332C132.966 234.687 133.433 234.924 133.94 235.014L134.153 235.053C138.31 235.782 142.566 235.782 146.722 235.053L146.936 235.014C147.442 234.924 147.909 234.687 148.274 234.332C148.638 233.978 148.884 233.523 148.978 233.029L150.22 226.474C153.085 225.424 155.729 223.933 158.103 222.034L164.53 224.265C165.015 224.433 165.54 224.452 166.036 224.321C166.532 224.19 166.976 223.915 167.308 223.532L167.451 223.37C170.205 220.196 172.318 216.621 173.751 212.737L173.822 212.536C174.162 211.579 173.869 210.505 173.07 209.834ZM140.438 213.864C132.752 213.864 126.524 207.787 126.524 200.29C126.524 192.792 132.752 186.715 140.438 186.715C148.123 186.715 154.352 192.792 154.352 200.29C154.352 207.787 148.123 213.864 140.438 213.864Z" fill="#07407B"/>
<path d="M167.921 303.98C169.69 300.917 170.157 297.362 169.239 293.937C168.316 290.521 166.139 287.666 163.076 285.898C160.013 284.129 156.452 283.672 153.032 284.58C149.617 285.503 146.762 287.68 144.994 290.743C143.225 293.806 142.768 297.367 143.675 300.786C144.599 304.202 146.776 307.057 149.839 308.825C152.902 310.594 156.462 311.051 159.882 310.144C161.564 309.7 163.14 308.927 164.52 307.869C165.9 306.81 167.056 305.489 167.921 303.98ZM119.409 332.289L129.004 328.896C130.767 330.337 132.66 331.648 134.637 332.79C136.614 333.932 138.706 334.921 140.826 335.721L142.684 345.728C142.825 346.484 143.193 347.179 143.739 347.721C144.285 348.264 144.983 348.627 145.74 348.762L146.06 348.824C152.281 349.957 158.655 349.954 164.875 348.814L165.197 348.754C165.952 348.615 166.648 348.251 167.192 347.71C167.736 347.168 168.104 346.474 168.246 345.72L170.088 335.692C174.383 334.073 178.345 331.799 181.87 328.889L191.496 332.302C192.221 332.559 193.007 332.589 193.75 332.389C194.493 332.188 195.157 331.766 195.655 331.179L195.866 330.932C199.904 326.161 203.146 320.547 205.258 314.664L205.367 314.358C205.626 313.633 205.66 312.847 205.462 312.104C205.264 311.36 204.845 310.694 204.26 310.194L196.456 303.531C197.183 299.052 197.176 294.486 196.435 290.009L204.255 283.351C204.839 282.851 205.257 282.186 205.454 281.444C205.651 280.701 205.617 279.916 205.357 279.193L205.249 278.884C203.118 272.932 199.934 267.411 195.85 262.585L195.637 262.339C194.623 261.139 192.97 260.69 191.481 261.21L181.777 264.65C180.034 263.22 178.156 261.931 176.21 260.807C174.243 259.672 172.187 258.69 170.098 257.907L168.214 247.804C168.073 247.048 167.705 246.352 167.159 245.81C166.613 245.268 165.915 244.905 165.158 244.769L164.838 244.708C158.615 243.587 152.272 243.572 146.023 244.718L145.702 244.778C144.946 244.916 144.251 245.28 143.706 245.822C143.162 246.363 142.795 247.057 142.652 247.812L140.795 257.913C136.523 259.517 132.572 261.771 129.075 264.656L119.402 261.229C118.677 260.972 117.891 260.942 117.148 261.143C116.405 261.343 115.741 261.765 115.243 262.352L115.033 262.599C110.958 267.42 107.778 272.929 105.64 278.868L105.532 279.174C105.272 279.898 105.239 280.684 105.436 281.428C105.634 282.172 106.053 282.837 106.638 283.337L114.407 289.967C113.66 294.48 113.661 299.043 114.407 303.572L106.644 310.181C106.06 310.68 105.641 311.345 105.444 312.088C105.247 312.831 105.281 313.616 105.541 314.339L105.649 314.647C107.802 320.643 110.966 326.117 115.048 330.946L115.261 331.192C116.277 332.366 117.92 332.81 119.409 332.289ZM138.447 286.963C144.191 277.016 156.908 273.608 166.855 279.352C176.803 285.095 180.211 297.812 174.467 307.76C168.724 317.707 156.007 321.115 146.059 315.372C136.112 309.628 132.704 296.911 138.447 286.963Z" stroke="#07407B"/>
<path d="M73.1131 256.692C76.1763 254.923 78.3586 252.079 79.2766 248.653C80.1843 245.233 79.7268 241.672 77.9583 238.609C76.1898 235.546 73.335 233.37 69.9195 232.446C66.4996 231.538 62.9391 231.996 59.876 233.764C56.8129 235.533 54.6364 238.387 53.7126 241.803C52.8049 245.223 53.2624 248.783 55.0309 251.846C56.7994 254.91 59.6541 257.086 63.0696 258.01C64.7476 258.466 66.4995 258.585 68.2237 258.359C69.9478 258.132 71.6098 257.566 73.1131 256.692ZM16.9455 256.952L26.9518 258.81C27.758 260.94 28.7416 263.022 29.8831 265C31.0247 266.977 32.3419 268.88 33.7774 270.633L30.3838 280.228C30.1278 280.953 30.0987 281.739 30.3004 282.482C30.5022 283.224 30.9251 283.888 31.513 284.384L31.759 284.597C36.5798 288.689 42.1021 291.873 48.0582 293.996L48.3669 294.104C49.0902 294.362 49.8746 294.395 50.6168 294.198C51.359 294.001 52.0242 293.584 52.5246 293.001L59.1339 285.238C63.6623 285.984 68.2314 285.996 72.7384 285.238L79.3684 293.007C79.8681 293.592 80.5339 294.011 81.2775 294.209C82.0212 294.406 82.8073 294.373 83.5316 294.113L83.8378 294.005C89.721 291.892 95.335 288.651 100.106 284.612L100.353 284.402C100.94 283.904 101.362 283.24 101.563 282.497C101.763 281.754 101.733 280.968 101.476 280.243L98.0496 270.57C100.918 267.055 103.196 263.096 104.792 258.85L114.894 256.993C115.649 256.852 116.344 256.485 116.886 255.941C117.428 255.396 117.791 254.699 117.928 253.943L117.988 253.622C119.119 247.401 119.122 241.028 117.998 234.807L117.936 234.487C117.658 232.941 116.451 231.725 114.902 231.431L104.778 229.559C103.984 227.449 103.002 225.394 101.878 223.447C100.742 221.48 99.4528 219.602 98.0351 217.88L101.455 208.188C101.711 207.462 101.74 206.676 101.538 205.934C101.336 205.191 100.913 204.528 100.325 204.032L100.08 203.819C95.2501 199.736 89.7645 196.552 83.7803 194.42L83.4716 194.311C82.7483 194.053 81.9639 194.021 81.2217 194.218C80.4795 194.414 79.8143 194.832 79.3139 195.414L72.655 203.233C68.153 202.486 63.6043 202.462 59.134 203.213L52.4701 195.409C51.9704 194.824 51.3046 194.404 50.561 194.207C49.8173 194.009 49.0312 194.042 48.3069 194.302L48.0007 194.41C42.0621 196.548 36.5529 199.729 31.7323 203.803L31.4853 204.014C30.8982 204.511 30.4763 205.176 30.2757 205.918C30.0751 206.661 30.1053 207.448 30.3622 208.173L33.7754 217.799C30.8713 221.333 28.5912 225.286 26.9728 229.581L16.9448 231.423C16.1894 231.563 15.4946 231.93 14.9527 232.475C14.4107 233.019 14.0474 233.716 13.9109 234.472L13.8507 234.794C12.7165 241.063 12.7197 247.385 13.8406 253.609L13.9021 253.928C14.1951 255.453 15.3963 256.658 16.9455 256.952ZM56.0965 227.218C66.044 221.475 78.7614 224.882 84.5045 234.83C90.2477 244.777 86.8401 257.495 76.8926 263.238C66.9451 268.981 54.2278 265.573 48.4846 255.626C42.7414 245.678 46.149 232.961 56.0965 227.218Z" stroke="#07407B"/>
<path d="M140.438 191.649C138.071 191.649 135.855 192.545 134.177 194.182C132.507 195.819 131.581 197.981 131.581 200.29C131.581 202.598 132.507 204.76 134.177 206.397C135.855 208.027 138.071 208.93 140.438 208.93C142.804 208.93 145.02 208.027 146.698 206.397C148.368 204.76 149.294 202.598 149.294 200.29C149.294 197.981 148.368 195.819 146.698 194.182C145.879 193.376 144.903 192.737 143.828 192.303C142.754 191.868 141.601 191.646 140.438 191.649ZM173.07 209.834L167.894 205.517C168.139 204.05 168.266 202.552 168.266 201.062C168.266 199.572 168.139 198.066 167.894 196.606L173.07 192.29C173.461 191.963 173.741 191.528 173.872 191.043C174.004 190.557 173.981 190.044 173.806 189.572L173.735 189.371C172.31 185.485 170.176 181.882 167.435 178.738L167.292 178.576C166.959 178.195 166.516 177.92 166.02 177.789C165.524 177.658 164.999 177.677 164.514 177.843L158.087 180.074C155.713 178.175 153.07 176.677 150.204 175.634L148.962 169.079C148.868 168.585 148.622 168.13 148.258 167.776C147.893 167.422 147.426 167.184 146.92 167.094L146.706 167.056C142.59 166.33 138.253 166.33 134.138 167.056L133.924 167.094C133.417 167.184 132.951 167.422 132.586 167.776C132.221 168.13 131.976 168.585 131.882 169.079L130.631 175.665C127.793 176.716 125.15 178.21 122.804 180.09L116.329 177.843C115.845 177.676 115.319 177.656 114.823 177.787C114.327 177.918 113.883 178.193 113.551 178.576L113.409 178.738C110.673 181.886 108.539 185.487 107.109 189.371L107.038 189.572C106.681 190.537 106.974 191.618 107.774 192.29L113.013 196.653C112.768 198.104 112.649 199.587 112.649 201.054C112.649 202.537 112.768 204.019 113.013 205.455L107.79 209.818C107.399 210.145 107.119 210.58 106.987 211.065C106.856 211.551 106.879 212.064 107.053 212.536L107.125 212.737C108.557 216.621 110.67 220.212 113.425 223.37L113.567 223.532C113.9 223.914 114.344 224.188 114.84 224.319C115.336 224.45 115.861 224.431 116.345 224.265L122.82 222.018C125.178 223.91 127.806 225.408 130.647 226.443L131.898 233.029C131.991 233.523 132.237 233.978 132.602 234.332C132.966 234.687 133.433 234.924 133.94 235.014L134.153 235.053C138.31 235.782 142.566 235.782 146.722 235.053L146.936 235.014C147.442 234.924 147.909 234.687 148.274 234.332C148.638 233.978 148.884 233.523 148.978 233.029L150.22 226.474C153.085 225.424 155.729 223.933 158.103 222.034L164.53 224.265C165.015 224.433 165.54 224.452 166.036 224.321C166.532 224.19 166.976 223.915 167.308 223.532L167.451 223.37C170.205 220.196 172.318 216.621 173.751 212.737L173.822 212.536C174.162 211.579 173.869 210.505 173.07 209.834ZM140.438 213.864C132.752 213.864 126.524 207.787 126.524 200.29C126.524 192.792 132.752 186.715 140.438 186.715C148.123 186.715 154.352 192.792 154.352 200.29C154.352 207.787 148.123 213.864 140.438 213.864Z" stroke="#07407B"/>
</svg>
