<svg width="663" height="663" viewBox="0 0 663 663" fill="none" xmlns="http://www.w3.org/2000/svg">
<g clip-path="url(#clip0_947_1664)">
<rect x="164.82" y="51.1133" width="332.769" height="600.8" rx="60.9983" fill="#E3ECF7" stroke="#E3ECF7" stroke-width="15.6406"/>
<path d="M290.307 25.5302C290.307 16.8922 297.309 9.88965 305.947 9.88965L356.467 9.88965C365.105 9.88965 372.107 16.8922 372.107 25.5302V28.0181C372.107 29.7457 370.707 31.1462 368.979 31.1462L293.435 31.1462C291.707 31.1462 290.307 29.7457 290.307 28.0181V25.5302Z" fill="#E3ECF7"/>
<path d="M380.722 538.612C384.225 532.545 385.151 525.506 383.333 518.722C381.503 511.958 377.193 506.304 371.127 502.802C365.061 499.299 358.01 498.393 351.237 500.191C344.473 502.021 338.819 506.331 335.317 512.397C331.815 518.463 330.909 525.514 332.706 532.287C334.536 539.051 338.846 544.705 344.912 548.207C350.979 551.709 358.03 552.615 364.802 550.818C368.132 549.939 371.254 548.408 373.987 546.312C376.72 544.217 379.01 541.599 380.722 538.612V538.612ZM284.649 594.675L303.651 587.954C307.142 590.809 310.891 593.406 314.806 595.666C318.722 597.927 322.866 599.887 327.063 601.472L330.744 621.288C331.023 622.786 331.752 624.163 332.833 625.236C333.914 626.31 335.296 627.029 336.796 627.298L337.429 627.42C349.748 629.664 362.373 629.657 374.69 627.4L375.327 627.281C376.822 627.007 378.2 626.286 379.278 625.213C380.356 624.141 381.084 622.767 381.365 621.272L385.013 601.413C393.518 598.208 401.367 593.704 408.346 587.941L427.409 594.7C428.846 595.209 430.403 595.269 431.874 594.872C433.345 594.475 434.661 593.639 435.646 592.476L436.063 591.987C444.061 582.538 450.48 571.42 454.664 559.769L454.879 559.163C455.393 557.729 455.459 556.172 455.068 554.699C454.676 553.227 453.846 551.908 452.687 550.918L437.232 537.721C438.671 528.853 438.658 519.809 437.191 510.944L452.677 497.757C453.833 496.769 454.662 495.451 455.052 493.981C455.442 492.51 455.375 490.955 454.861 489.523L454.646 488.912C450.426 477.124 444.121 466.191 436.033 456.633L435.61 456.146C433.602 453.769 430.328 452.88 427.38 453.91L408.163 460.723C404.711 457.892 400.992 455.338 397.137 453.113C393.242 450.864 389.171 448.919 385.034 447.369L381.302 427.361C381.023 425.863 380.294 424.486 379.213 423.412C378.132 422.339 376.749 421.62 375.25 421.351L374.617 421.229C362.292 419.009 349.73 418.98 337.356 421.249L336.719 421.368C335.223 421.642 333.846 422.363 332.768 423.436C331.69 424.508 330.962 425.882 330.68 427.377L327.003 447.381C318.541 450.557 310.717 455.02 303.793 460.734L284.636 453.948C283.2 453.44 281.643 453.38 280.172 453.777C278.701 454.174 277.385 455.01 276.4 456.172L275.982 456.662C267.914 466.208 261.615 477.119 257.382 488.879L257.167 489.486C256.652 490.92 256.586 492.477 256.978 493.95C257.37 495.422 258.2 496.741 259.359 497.73L274.744 510.86C273.263 519.798 273.267 528.835 274.744 537.803L259.369 550.892C258.212 551.88 257.384 553.197 256.994 554.668C256.604 556.139 256.67 557.694 257.185 559.126L257.4 559.737C261.662 571.611 267.928 582.451 276.013 592.016L276.435 592.503C278.447 594.828 281.701 595.705 284.649 594.675ZM322.353 504.912C333.727 485.212 358.912 478.464 378.612 489.838C398.312 501.211 405.06 526.397 393.686 546.097C382.313 565.796 357.127 572.545 337.428 561.171C317.728 549.797 310.979 524.612 322.353 504.912Z" fill="#00367C"/>
<path d="M192.965 444.964C199.032 441.461 203.354 435.828 205.171 429.044C206.969 422.271 206.063 415.22 202.561 409.154C199.058 403.088 193.405 398.777 186.641 396.948C179.868 395.15 172.817 396.056 166.751 399.559C160.685 403.061 156.374 408.714 154.545 415.478C152.747 422.251 153.653 429.302 157.156 435.368C160.658 441.435 166.311 445.745 173.075 447.574C176.398 448.478 179.868 448.713 183.282 448.265C186.697 447.817 189.988 446.695 192.965 444.964V444.964ZM81.7319 445.479L101.548 449.16C103.145 453.378 105.093 457.501 107.353 461.417C109.614 465.332 112.223 469.101 115.066 472.572L108.345 491.574C107.838 493.011 107.78 494.568 108.18 496.038C108.579 497.508 109.417 498.822 110.581 499.805L111.068 500.227C120.615 508.33 131.552 514.636 143.347 518.84L143.958 519.055C145.391 519.566 146.944 519.631 148.414 519.241C149.884 518.851 151.201 518.025 152.192 516.871L165.281 501.497C174.249 502.974 183.298 502.997 192.223 501.496L205.353 516.882C206.343 518.04 207.662 518.871 209.134 519.262C210.607 519.654 212.164 519.588 213.598 519.074L214.204 518.859C225.855 514.675 236.973 508.256 246.422 500.258L246.911 499.84C248.074 498.855 248.91 497.54 249.307 496.069C249.704 494.597 249.644 493.04 249.135 491.604L242.349 472.447C248.03 465.487 252.54 457.647 255.703 449.238L275.707 445.56C277.203 445.282 278.579 444.556 279.652 443.477C280.726 442.398 281.445 441.019 281.715 439.521L281.835 438.884C284.074 426.566 284.081 413.945 281.855 401.623L281.733 400.991C281.182 397.927 278.791 395.52 275.723 394.938L255.674 391.23C254.101 387.053 252.156 382.981 249.931 379.127C247.682 375.231 245.128 371.512 242.321 368.101L249.093 348.907C249.6 347.471 249.657 345.914 249.258 344.443C248.858 342.973 248.021 341.659 246.856 340.677L246.369 340.255C236.805 332.17 225.942 325.863 214.091 321.642L213.479 321.426C212.047 320.916 210.493 320.851 209.024 321.241C207.554 321.631 206.236 322.457 205.245 323.61L192.058 339.096C183.143 337.616 174.134 337.569 165.281 339.055L152.084 323.6C151.095 322.441 149.776 321.611 148.303 321.219C146.831 320.828 145.274 320.894 143.84 321.408L143.233 321.623C131.473 325.856 120.562 332.156 111.015 340.224L110.526 340.642C109.364 341.627 108.528 342.942 108.131 344.413C107.734 345.884 107.793 347.441 108.302 348.878L115.062 367.941C109.31 374.941 104.795 382.769 101.59 391.274L81.7305 394.922C80.2345 395.2 78.8585 395.926 77.7852 397.005C76.712 398.083 75.9924 399.463 75.7221 400.961L75.6029 401.597C73.3568 414.012 73.3632 426.533 75.5829 438.858L75.7048 439.491C76.2849 442.511 78.6637 444.897 81.7319 445.479ZM159.266 386.594C178.966 375.221 204.151 381.969 215.525 401.669C226.899 421.369 220.15 446.554 200.45 457.928C180.75 469.302 155.565 462.553 144.191 442.853C132.818 423.153 139.566 397.968 159.266 386.594Z" fill="#00367C"/>
<path d="M326.293 316.156C321.606 316.156 317.218 317.93 313.895 321.171C310.587 324.413 308.754 328.695 308.754 333.267C308.754 337.84 310.587 342.121 313.895 345.363C317.218 348.59 321.606 350.379 326.293 350.379C330.98 350.379 335.368 348.59 338.691 345.363C341.998 342.121 343.832 337.84 343.832 333.267C343.832 328.695 341.998 324.413 338.691 321.171C337.068 319.576 335.136 318.311 333.008 317.45C330.88 316.589 328.597 316.149 326.293 316.156V316.156ZM390.918 352.168L380.667 343.62C381.153 340.714 381.403 337.748 381.403 334.797C381.403 331.845 381.153 328.863 380.667 325.973L390.918 317.425C391.692 316.778 392.246 315.917 392.507 314.955C392.767 313.994 392.721 312.978 392.375 312.042L392.234 311.645C389.413 303.948 385.186 296.814 379.758 290.588L379.475 290.267C378.816 289.51 377.938 288.967 376.956 288.708C375.973 288.448 374.934 288.485 373.974 288.814L361.246 293.233C356.544 289.471 351.309 286.505 345.635 284.44L343.174 271.458C342.988 270.48 342.502 269.58 341.78 268.878C341.057 268.176 340.133 267.705 339.13 267.528L338.707 267.451C330.556 266.014 321.967 266.014 313.816 267.451L313.393 267.528C312.39 267.705 311.466 268.176 310.743 268.878C310.021 269.58 309.535 270.48 309.349 271.458L306.873 284.502C301.252 286.582 296.017 289.542 291.371 293.264L278.549 288.814C277.59 288.483 276.549 288.444 275.567 288.704C274.584 288.963 273.705 289.508 273.048 290.267L272.766 290.588C267.347 296.821 263.121 303.953 260.289 311.645L260.148 312.042C259.443 313.954 260.023 316.095 261.606 317.425L271.982 326.065C271.496 328.94 271.261 331.876 271.261 334.781C271.261 337.717 271.496 340.653 271.982 343.498L261.637 352.138C260.863 352.784 260.308 353.646 260.048 354.607C259.788 355.569 259.833 356.585 260.179 357.52L260.32 357.918C263.157 365.61 267.342 372.72 272.797 378.975L273.079 379.296C273.738 380.052 274.617 380.596 275.599 380.855C276.581 381.114 277.621 381.077 278.581 380.749L291.402 376.299C296.073 380.045 301.277 383.012 306.904 385.061L309.381 398.105C309.566 399.083 310.052 399.983 310.775 400.685C311.497 401.387 312.421 401.858 313.424 402.035L313.848 402.111C322.078 403.556 330.508 403.556 338.738 402.111L339.161 402.035C340.165 401.858 341.089 401.387 341.811 400.685C342.533 399.983 343.02 399.083 343.205 398.105L345.666 385.122C351.34 383.042 356.575 380.091 361.278 376.329L374.005 380.749C374.965 381.08 376.005 381.118 376.988 380.859C377.971 380.599 378.849 380.054 379.507 379.296L379.789 378.975C385.243 372.69 389.428 365.61 392.266 357.918L392.407 357.52C393.081 355.624 392.501 353.498 390.918 352.168ZM326.293 360.15C311.073 360.15 298.738 348.116 298.738 333.267C298.738 318.419 311.073 306.384 326.293 306.384C341.513 306.384 353.848 318.419 353.848 333.267C353.848 348.116 341.513 360.15 326.293 360.15Z" fill="#00367C"/>
</g>
<defs>
<clipPath id="clip0_947_1664">
<rect width="663" height="663" fill="white"/>
</clipPath>
</defs>
</svg>
