<svg width="1014" height="1014" viewBox="0 0 1014 1014" fill="none" xmlns="http://www.w3.org/2000/svg">
<g clip-path="url(#clip0_974_477)">
<path d="M113.776 604.811L0 739.352L6.7271 765.091H109.973V811.011H144.486V765.091H173.735V735.55H144.486V604.811H113.776ZM109.973 735.55H42.7024L109.973 654.533V735.55Z" fill="#E3ECF7"/>
<path d="M954.041 604.811L840.266 739.352L846.993 765.091H950.239V811.011H984.752V765.091H1014V735.55H984.752V604.811H954.041ZM950.239 735.55H882.968L950.239 654.533V735.55Z" fill="#E3ECF7"/>
<rect x="283.204" y="132.983" width="439.861" height="791.75" rx="77.9754" fill="#E3ECF7" stroke="#E3ECF7" stroke-width="19.9937"/>
<path d="M449.152 98.9937C449.152 87.9515 458.104 79 469.146 79H537.125C548.167 79 557.118 87.9515 557.118 98.9937V102.992C557.118 105.201 555.328 106.991 553.12 106.991H453.151C450.943 106.991 449.152 105.201 449.152 102.992V98.9937Z" fill="#E3ECF7"/>
<rect x="304.984" y="507.709" width="399.874" height="395.875" rx="53.983" fill="#00367C" stroke="#E3ECF7" stroke-width="11.9962"/>
<path d="M608.284 707.912C608.284 735.255 597.422 761.479 578.087 780.814C558.752 800.149 532.528 811.012 505.184 811.012C477.84 811.012 451.616 800.149 432.281 780.814C412.946 761.479 402.084 735.255 402.084 707.912C402.084 680.568 412.946 654.344 432.281 635.009C451.616 615.674 477.84 604.812 505.184 604.812C532.528 604.812 558.752 615.674 578.087 635.009C597.422 654.344 608.284 680.568 608.284 707.912ZM505.184 656.362C503.555 656.362 501.944 656.705 500.456 657.366C498.967 658.027 497.634 658.993 496.541 660.201C495.448 661.409 494.621 662.832 494.112 664.38C493.603 665.927 493.423 667.564 493.585 669.185L498.096 714.381C498.247 716.157 499.06 717.811 500.372 719.016C501.685 720.221 503.402 720.89 505.184 720.89C506.966 720.89 508.683 720.221 509.996 719.016C511.308 717.811 512.121 716.157 512.272 714.381L516.783 669.185C516.945 667.564 516.765 665.927 516.256 664.38C515.747 662.832 514.92 661.409 513.827 660.201C512.734 658.993 511.401 658.027 509.912 657.366C508.424 656.705 506.813 656.362 505.184 656.362ZM505.21 733.687C501.792 733.687 498.514 735.044 496.097 737.461C493.68 739.878 492.322 743.156 492.322 746.574C492.322 749.992 493.68 753.27 496.097 755.687C498.514 758.104 501.792 759.462 505.21 759.462C508.628 759.462 511.906 758.104 514.323 755.687C516.74 753.27 518.097 749.992 518.097 746.574C518.097 743.156 516.74 739.878 514.323 737.461C511.906 735.044 508.628 733.687 505.21 733.687Z" fill="#E3ECF7"/>
</g>
<defs>
<clipPath id="clip0_974_477">
<rect width="1014" height="1014" fill="white"/>
</clipPath>
</defs>
</svg>
