<svg width="389" height="330" viewBox="0 0 389 330" fill="none" xmlns="http://www.w3.org/2000/svg">
<mask id="path-1-outside-1_1144_502" maskUnits="userSpaceOnUse" x="104.258" y="7.37549" width="181" height="323" fill="black">
<rect fill="white" x="104.258" y="7.37549" width="181" height="323"/>
</mask>
<path d="M285.091 32.8589C285.091 18.9362 273.634 7.51185 259.69 7.51185V11.2391C271.584 11.2391 281.363 21.0027 281.363 32.8589H285.091ZM259.69 7.51185H230.136V11.2391H259.69V7.51185ZM230.136 7.51185H159.349V11.2391H230.136V7.51185ZM159.349 7.51185H129.795V11.2391H159.349V7.51185ZM129.795 7.51185C115.851 7.51185 104.394 18.9362 104.394 32.8589H108.121C108.121 21.0027 117.901 11.2391 129.795 11.2391V7.51185ZM104.394 32.8589V132.972H108.121V32.8589H104.394ZM285.091 132.972V32.8589H281.363V132.972H285.091ZM104.394 132.974V304.42H108.121V132.974H104.394ZM104.394 304.42C104.394 318.388 115.843 329.864 129.795 329.864V326.136C117.908 326.136 108.121 316.336 108.121 304.42H104.394ZM129.795 329.864H259.513V326.136H129.795V329.864ZM259.513 329.864C273.632 329.864 285.091 318.397 285.091 304.42H281.363C281.363 316.327 271.585 326.136 259.513 326.136V329.864ZM285.091 304.42V132.974H281.363V304.42H285.091Z" fill="white" mask="url(#path-1-outside-1_1144_502)"/>
<path d="M172.745 4.43244C172.745 1.98447 174.73 0 177.178 0H212.637C215.085 0 217.069 1.98447 217.069 4.43244V4.43244H172.745V4.43244Z" fill="white"/>
<path d="M106 101.905V300.483C106 315.474 116.68 327.795 129.674 327.795H260.148C273.32 327.795 284 315.474 284 300.483V101.905H195H106Z" fill="white"/>
<path d="M106 235.89V37.312C106 22.3211 116.68 9.99976 129.674 9.99976H260.148C273.32 9.99976 284 22.3211 284 37.312V235.89H195H106Z" fill="white"/>
<path d="M43.61 203.542L0 255.112L2.57848 264.978H42.1526V282.579H55.3814V264.978H66.5922V253.655H55.3814V203.542H43.61ZM42.1526 253.655H16.3678L42.1526 222.601V253.655Z" fill="white"/>
<path d="M365.682 203.542L322.072 255.112L324.651 264.978H364.225V282.579H377.454V264.978H388.664V253.655H377.454V203.542H365.682ZM364.225 253.655H338.44L364.225 222.601V253.655Z" fill="white"/>
<rect x="116.903" y="166.323" width="153.271" height="151.738" rx="20.6916" fill="#07407B" stroke="white" stroke-width="4.59813"/>
<path d="M233.158 243.061C233.158 253.541 228.995 263.593 221.584 271.004C214.173 278.415 204.121 282.579 193.64 282.579C183.159 282.579 173.108 278.415 165.697 271.004C158.286 263.593 154.122 253.541 154.122 243.061C154.122 232.58 158.286 222.528 165.697 215.117C173.108 207.706 183.159 203.542 193.64 203.542C204.121 203.542 214.173 207.706 221.584 215.117C228.995 222.528 233.158 232.58 233.158 243.061ZM193.64 223.302C193.016 223.302 192.398 223.433 191.828 223.686C191.257 223.94 190.746 224.31 190.327 224.773C189.908 225.236 189.591 225.782 189.396 226.375C189.201 226.968 189.132 227.595 189.194 228.217L190.923 245.54C190.981 246.221 191.293 246.855 191.796 247.317C192.299 247.779 192.957 248.035 193.64 248.035C194.323 248.035 194.981 247.779 195.484 247.317C195.988 246.855 196.299 246.221 196.357 245.54L198.086 228.217C198.148 227.595 198.079 226.968 197.884 226.375C197.689 225.782 197.372 225.236 196.953 224.773C196.534 224.31 196.023 223.94 195.452 223.686C194.882 223.433 194.264 223.302 193.64 223.302ZM193.65 252.94C192.34 252.94 191.083 253.461 190.157 254.387C189.231 255.313 188.71 256.57 188.71 257.88C188.71 259.19 189.231 260.446 190.157 261.373C191.083 262.299 192.34 262.82 193.65 262.82C194.96 262.82 196.217 262.299 197.143 261.373C198.069 260.446 198.59 259.19 198.59 257.88C198.59 256.57 198.069 255.313 197.143 254.387C196.217 253.461 194.96 252.94 193.65 252.94Z" fill="white"/>
</svg>
